<?xml version="1.0" encoding="UTF-8" standalone="no"?>
<!-- This Source Code Form is subject to the terms of the Mozilla Public
   - License, v. 2.0. If a copy of the MPL was not distributed with this
   - file, You can obtain one at http://mozilla.org/MPL/2.0/. -->

<svg
   xmlns:dc="http://purl.org/dc/elements/1.1/"
   xmlns:cc="http://creativecommons.org/ns#"
   xmlns:rdf="http://www.w3.org/1999/02/22-rdf-syntax-ns#"
   xmlns:svg="http://www.w3.org/2000/svg"
   xmlns="http://www.w3.org/2000/svg"
   xmlns:sodipodi="http://sodipodi.sourceforge.net/DTD/sodipodi-0.dtd"
   xmlns:inkscape="http://www.inkscape.org/namespaces/inkscape"
   width="138"
   height="38"
   version="1.1"
   id="svg4"
   sodipodi:docname="firefox-wordmark.svg"
   inkscape:version="0.92.4 5da689c313, 2019-01-14">
  <metadata
     id="metadata10">
    <rdf:RDF>
      <cc:Work
         rdf:about="">
        <dc:format>image/svg+xml</dc:format>
        <dc:type
           rdf:resource="http://purl.org/dc/dcmitype/StillImage" />
        <dc:title></dc:title>
      </cc:Work>
    </rdf:RDF>
  </metadata>
  <defs
     id="defs8" />
  <sodipodi:namedview
     pagecolor="#ffffff"
     bordercolor="#666666"
     borderopacity="1"
     objecttolerance="10"
     gridtolerance="10"
     guidetolerance="10"
     inkscape:pageopacity="0"
     inkscape:pageshadow="2"
     inkscape:window-width="1013"
     inkscape:window-height="779"
     id="namedview6"
     showgrid="false"
     inkscape:zoom="3.1956522"
     inkscape:cx="69"
     inkscape:cy="19"
     inkscape:window-x="2129"
     inkscape:window-y="289"
     inkscape:window-maximized="0"
     inkscape:current-layer="svg4" />
  <flowRoot
     xml:space="preserve"
     id="flowRoot3715"
     style="font-style:normal;font-variant:normal;font-weight:bold;font-stretch:normal;font-size:32px;line-height:1.25;font-family:Cantarell;-inkscape-font-specification:'Cantarell Bold';letter-spacing:0px;word-spacing:0px;fill:#000000;fill-opacity:1;stroke:none"
     transform="translate(-1.2385256,-5.0373166)"><flowRegion
       id="flowRegion3717"
       style="font-size:32px"><rect
         id="rect3719"
         width="129.74207"
         height="45.081665"
         x="1.269906"
         y="1.4367779"
         style="font-size:32px" /></flowRegion><flowPara
       id="flowPara3721" /></flowRoot>  <text
     xml:space="preserve"
     style="font-style:normal;font-variant:normal;font-weight:bold;font-stretch:normal;font-size:26.66666603px;line-height:1.25;font-family:Cantarell;-inkscape-font-specification:'Cantarell Bold';letter-spacing:0px;word-spacing:0px;fill:#000000;fill-opacity:1;stroke:none"
     x="4.2644038"
     y="33.015083"
     id="text3725"><tspan
       sodipodi:role="line"
       id="tspan3723"
       x="4.2644038"
       y="56.962086" /></text>
  <text
     xml:space="preserve"
     style="font-style:normal;font-variant:normal;font-weight:bold;font-stretch:normal;font-size:26.66666603px;line-height:0.25;font-family:Cantarell;-inkscape-font-specification:'Cantarell Bold';letter-spacing:0px;word-spacing:0px;fill:#000000;fill-opacity:1;stroke:none"
     x="4.4760585"
     y="34.919941"
     id="text3729"><tspan
       sodipodi:role="line"
       id="tspan3727"
       x="4.4760585"
       y="45.533611" /></text>
  <g
     aria-label="Plasmafox"
     transform="matrix(0.74863219,0,0,1.3357694,-1.2385256,-5.0373166)"
     style="font-style:normal;font-variant:normal;font-weight:bold;font-stretch:normal;font-size:35.62051392px;line-height:1.25;font-family:Cantarell;-inkscape-font-specification:'Cantarell Bold';letter-spacing:0px;word-spacing:0px;fill:#f2f2f2;fill-opacity:1;stroke:#f2f2f2;stroke-width:1.33576953"
     id="text3733">
    <path
       d="M 5.8549133,31.341211 H 10.44996 v -7.943374 h 3.098984 c 6.126729,0 10.187467,-3.45519 10.187467,-8.727026 0,-4.9512516 -3.633292,-8.0502363 -9.403815,-8.0502363 H 5.8549133 Z M 13.905149,10.645693 c 3.027744,0 5.058113,1.852266 5.058113,4.595046 0,2.671539 -1.674164,4.1676 -4.595046,4.1676 H 10.44996 v -8.762646 z"
       style="fill:#f2f2f2;stroke:#f2f2f2;stroke-width:1.33576953"
       id="path3735"
       inkscape:connector-curvature="0" />
    <path
       d="m 32.071942,31.590555 c 1.104236,0 2.350954,-0.213723 3.312708,-0.641169 l -0.961754,-3.027744 c -0.391826,0.142482 -0.783651,0.213723 -1.104236,0.213723 -1.032995,0 -1.602923,-0.71241 -1.602923,-1.923508 V 5.0176515 H 27.227552 V 26.781786 c 0,2.992123 1.816646,4.808769 4.84439,4.808769 z"
       style="fill:#f2f2f2;stroke:#f2f2f2;stroke-width:1.33576953"
       id="path3737"
       inkscape:connector-curvature="0" />
    <path
       d="m 42.543841,31.697416 c 2.208472,0 4.09636,-0.74803 5.414319,-2.10161 l 0.641169,1.745405 h 3.241467 v -10.40119 c 0,-4.701908 -2.671539,-7.266585 -7.765272,-7.266585 -2.493436,0 -5.129354,0.605549 -7.159724,1.674165 l 1.068616,3.170225 c 1.781025,-0.71241 3.526431,-1.068615 5.129354,-1.068615 2.7784,0 4.274461,1.068615 4.274461,3.134605 v 0.463067 c -7.515928,0.106861 -10.828636,1.816646 -10.828636,5.485559 0,3.134605 2.350954,5.164974 5.984246,5.164974 z m -1.42482,-5.770523 c 0,-1.567302 1.816646,-2.279713 6.26921,-2.350954 v 3.277088 c -0.854892,0.819271 -2.030369,1.282338 -3.348328,1.282338 -1.745405,0 -2.920882,-0.890513 -2.920882,-2.208472 z"
       style="fill:#f2f2f2;stroke:#f2f2f2;stroke-width:1.33576953"
       id="path3739"
       inkscape:connector-curvature="0" />
    <path
       d="m 61.956632,31.697416 c 4.773149,0 7.551549,-2.10161 7.551549,-5.5568 0,-6.482933 -9.760021,-4.310082 -9.760021,-7.230964 0,-1.032995 1.211098,-1.674164 3.348329,-1.674164 1.42482,0 3.134605,0.284964 4.737528,0.748031 l 0.926133,-3.41957 c -1.602923,-0.569928 -3.633292,-0.890513 -5.59242,-0.890513 -4.951252,0 -7.836513,1.994749 -7.836513,5.556801 0,6.447313 9.653159,3.989497 9.653159,7.124102 0,1.104236 -1.139857,1.781026 -3.098985,1.781026 -1.674164,0 -3.989497,-0.463067 -5.806144,-1.175477 l -0.997374,3.383949 c 1.994749,0.854892 4.523805,1.353579 6.874759,1.353579 z"
       style="fill:#f2f2f2;stroke:#f2f2f2;stroke-width:1.33576953"
       id="path3741"
       inkscape:connector-curvature="0" />
    <path
       d="m 73.070524,31.341211 h 4.559426 v -12.46718 c 0.997374,-0.783651 2.172851,-1.175477 3.45519,-1.175477 2.493436,0 3.419569,1.567303 3.419569,3.597672 v 10.044985 h 4.523805 V 20.476955 c 0,-0.534308 -0.07124,-1.032995 -0.142482,-1.496062 1.068616,-0.854892 2.279713,-1.282339 3.597672,-1.282339 2.422195,0 3.419569,1.460442 3.419569,3.597672 v 10.044985 h 4.523807 V 20.476955 c 0,-4.13198 -2.457817,-6.732278 -6.376073,-6.732278 -2.386575,0 -4.559426,0.961754 -6.126729,2.635918 -1.068615,-1.674164 -2.920882,-2.635918 -5.271836,-2.635918 -2.06599,0 -4.025118,0.748031 -5.5568,2.06599 l -0.783651,-1.781025 h -3.241467 z"
       style="fill:#f2f2f2;stroke:#f2f2f2;stroke-width:1.33576953"
       id="path3743"
       inkscape:connector-curvature="0" />
    <path
       d="m 109.68886,31.697416 c 2.20847,0 4.09636,-0.74803 5.41432,-2.10161 l 0.64116,1.745405 h 3.24147 v -10.40119 c 0,-4.701908 -2.67154,-7.266585 -7.76527,-7.266585 -2.49344,0 -5.12935,0.605549 -7.15972,1.674165 l 1.06861,3.170225 c 1.78103,-0.71241 3.52643,-1.068615 5.12936,-1.068615 2.7784,0 4.27446,1.068615 4.27446,3.134605 v 0.463067 c -7.51593,0.106861 -10.82864,1.816646 -10.82864,5.485559 0,3.134605 2.35095,5.164974 5.98425,5.164974 z m -1.42482,-5.770523 c 0,-1.567302 1.81664,-2.279713 6.26921,-2.350954 v 3.277088 c -0.8549,0.819271 -2.03037,1.282338 -3.34833,1.282338 -1.74541,0 -2.92088,-0.890513 -2.92088,-2.208472 z"
       style="fill:#f2f2f2;stroke:#f2f2f2;stroke-width:1.33576953"
       id="path3745"
       inkscape:connector-curvature="0" />
    <path
       d="m 124.29288,31.341211 h 4.38132 V 17.662934 h 4.98687 v -3.633292 h -4.98687 v -2.74278 c 0,-1.8522667 0.99738,-2.8496411 2.88526,-2.8496411 0.89052,0 1.99475,0.1781025 2.63592,0.5343077 l 0.92613,-3.2770873 c -1.10423,-0.6411693 -2.45781,-1.0329949 -3.91825,-1.0329949 -4.13198,0 -6.91038,2.8140206 -6.91038,7.0172416 v 2.350954 h -2.67154 v 3.633292 h 2.67154 z"
       style="fill:#f2f2f2;stroke:#f2f2f2;stroke-width:1.33576953"
       id="path3747"
       inkscape:connector-curvature="0" />
    <path
       d="m 143.70603,31.697416 c 5.48556,0 9.15447,-3.740154 9.15447,-9.296954 0,-5.307456 -3.38394,-8.727026 -8.58454,-8.727026 -5.48556,0 -9.15447,3.704534 -9.15447,9.296955 0,5.271836 3.34833,8.727025 8.58454,8.727025 z m 0.39183,-3.847015 c -2.67154,0 -4.38133,-2.06599 -4.38133,-5.271836 0,-3.134605 1.56731,-5.058113 4.13198,-5.058113 2.67154,0 4.41695,2.10161 4.41695,5.343077 0,3.063364 -1.60292,4.986872 -4.1676,4.986872 z"
       style="fill:#f2f2f2;stroke:#f2f2f2;stroke-width:1.33576953"
       id="path3749"
       inkscape:connector-curvature="0" />
    <path
       d="m 154.21443,31.341211 h 4.91563 l 3.56206,-5.271836 3.49081,5.271836 h 5.20059 l -6.23359,-8.691405 6.62542,-8.620164 h -5.05812 l -3.74015,5.485559 -3.59767,-5.485559 h -5.23622 l 6.41169,8.833887 z"
       style="fill:#f2f2f2;stroke:#f2f2f2;stroke-width:1.33576953"
       id="path3751"
       inkscape:connector-curvature="0" />
  </g>
  <path
     style="fill:#f2f2f2;stroke:#f2f2f2;stroke-width:0.21165101"
     d="m 2.5900644,20.306666 0.05414,-17.4082946 4.127195,0.0074 c 3.8515096,0.0069 4.2009036,0.04027 5.2306916,0.498979 2.168628,0.965997 3.925481,3.541535 4.649031,6.8154536 0.524091,2.371413 0.469473,6.767266 -0.113817,9.16029 -0.826665,3.3915 -2.648863,6.079401 -4.840693,7.140448 -0.704504,0.341046 -1.500975,0.507007 -2.7470416,0.57241 l -1.754869,0.09211 v 5.264734 5.264734 h -2.329392 -2.329391 z m 8.1915406,-0.682092 c 0.998445,-0.516316 1.540151,-1.939561 1.55773,-4.092687 0.01893,-2.31833 -0.439945,-3.789503 -1.461836,-4.686735 -0.668157,-0.58665 -0.867404,-0.644822 -2.2086026,-0.644822 h -1.474193 v 4.867973 4.867974 h 1.492068 c 0.90004,0 1.7312346,-0.123679 2.0948336,-0.311703 z"
     id="path3754"
     inkscape:connector-curvature="0" />
  <path
     style="fill:#f2f2f2;stroke:#f2f2f2;stroke-width:0.21165101"
     d="M 21.834595,37.986675 C 21.052663,37.837721 19.775481,36.393038 19.230196,35.040709 L 18.729683,33.799418 18.669423,17.237726 18.609163,0.67603535 h 2.22968 2.22968 l 0.0032,15.18595965 c 0.0018,8.403432 0.08665,15.317679 0.189987,15.480874 0.175365,0.276939 0.516149,0.259133 1.305622,-0.06823 0.282301,-0.117057 0.412867,0.298528 0.833061,2.6516 l 0.498292,2.790414 -0.568846,0.489299 c -0.878116,0.755325 -2.144133,1.038105 -3.495291,0.780719 z"
     id="path3756"
     inkscape:connector-curvature="0" />
  <path
     style="fill:#f2f2f2;stroke:#f2f2f2;stroke-width:0.21165101"
     d="m 28.884996,37.843313 c -0.808218,-0.352164 -1.956063,-1.650442 -2.443055,-2.763235 -1.0546,-2.409801 -1.107898,-6.528987 -0.112658,-8.70689 0.668125,-1.462071 1.586319,-2.48961 2.7713,-3.101322 1.080973,-0.558022 2.73962,-1.001697 3.756805,-1.004916 0.909042,-0.0029 1.013418,-0.336832 0.493893,-1.58023 -0.464927,-1.112728 -1.152724,-1.450035 -2.749424,-1.348365 -1.068339,0.06803 -1.59004,0.232311 -2.465044,0.776243 -0.610447,0.379475 -1.176043,0.613646 -1.25688,0.52038 -0.08084,-0.09327 -0.365197,-1.387965 -0.631912,-2.877109 l -0.484935,-2.707535 0.50035,-0.532598 c 0.275192,-0.292929 1.179293,-0.86815 2.009113,-1.278269 1.789979,-0.884656 3.569414,-1.12802 5.108869,-0.698713 1.411007,0.393486 3.008459,2.013978 3.645609,3.698189 0.937357,2.477763 1.053485,3.895478 1.061339,12.957065 l 0.0074,8.518953 h -1.683617 -1.683618 l -0.141937,-0.756591 -0.141938,-0.756593 -0.661344,0.627072 c -0.363739,0.344889 -0.966154,0.780598 -1.338699,0.968244 -0.813071,0.409527 -2.670455,0.433645 -3.559601,0.04622 z m 3.904342,-6.575879 c 0.761898,-0.393993 0.861741,-0.675251 0.861741,-2.427516 V 27.40728 l -1.106801,0.174962 c -1.795906,0.283894 -2.736366,1.296264 -2.410461,2.59477 0.317872,1.266502 1.431071,1.723609 2.655521,1.090422 z"
     id="path3758"
     inkscape:connector-curvature="0" />
  <path
     style="fill:#f2f2f2;stroke:#f2f2f2;stroke-width:0.21165101"
     d="m 42.376081,37.721125 c -1.20427,-0.433354 -2.393892,-1.105693 -2.780393,-1.571399 -0.181916,-0.219196 -0.128283,-0.982537 0.219167,-3.119296 0.253013,-1.555994 0.53384,-2.912222 0.624059,-3.013841 0.09022,-0.101619 0.459107,0.02535 0.819751,0.282149 0.89109,0.634512 2.789425,1.278344 3.769187,1.278344 1.19961,0 1.783642,-0.496475 1.704255,-1.448755 -0.06911,-0.829045 -0.270173,-0.969907 -3.313543,-2.321485 -2.149808,-0.954741 -3.230352,-2.570554 -3.66263,-5.476987 -0.454612,-3.056593 0.406169,-6.618551 2.002255,-8.285441 1.241998,-1.297093 2.12223,-1.622219 4.3803,-1.617924 1.732104,0.0033 2.17966,0.08248 3.230285,0.571525 0.67078,0.312235 1.278265,0.720576 1.349965,0.907423 0.119793,0.312176 -0.01581,1.438253 -0.588668,4.888486 l -0.214457,1.291633 -1.306522,-0.536656 c -2.519175,-1.034756 -4.87391,-0.572476 -4.5081,0.885027 0.1075,0.428312 0.572465,0.745829 2.311502,1.578483 1.197313,0.573275 2.498564,1.363949 2.891667,1.757053 1.584736,1.584736 2.337853,4.677641 1.912991,7.856281 -0.401839,3.006386 -1.746144,5.229731 -3.698235,6.116502 -1.159269,0.52662 -3.649105,0.516393 -5.142836,-0.02112 z"
     id="path3760"
     inkscape:connector-curvature="0" />
  <path
     style="fill:#f2f2f2;stroke:#f2f2f2;stroke-width:0.21165101"
     d="m 52.911321,25.227552 v -12.48741 h 1.683618 1.683617 l 0.13941,0.743117 c 0.183368,0.977438 0.351231,1.046292 0.960173,0.393843 1.402486,-1.502686 3.702433,-1.881396 5.241288,-0.86303 0.478957,0.316959 1.127789,0.964579 1.441849,1.439157 l 0.57102,0.862868 0.720456,-0.867335 c 0.8136,-0.979467 2.13247,-1.805039 3.196491,-2.000905 1.765049,-0.324911 3.770908,1.030542 4.748421,3.208731 1.038845,2.314853 1.20206,4.149809 1.20206,13.514232 v 8.544141 h -2.208882 -2.208881 l -0.06637,-8.201476 c -0.05949,-7.351892 -0.104962,-8.272082 -0.438946,-8.883068 -0.20492,-0.374876 -0.572109,-0.788376 -0.815978,-0.918891 -0.547166,-0.292834 -1.610078,-0.104252 -2.268679,0.40251 l -0.494122,0.380204 0.0262,8.610361 0.0262,8.61036 h -2.336449 -2.336456 l -0.0046,-8.095651 c -0.0043,-7.49969 -0.03429,-8.160942 -0.407317,-8.982578 -0.330782,-0.728587 -0.533794,-0.911527 -1.137146,-1.024717 -0.741754,-0.139153 -1.383467,0.07509 -2.101868,0.701738 -0.341293,0.297703 -0.37039,0.993885 -0.37039,8.862146 v 8.539062 h -2.222383 -2.222336 z"
     id="path3762"
     inkscape:connector-curvature="0" />
  <path
     style="fill:#f2f2f2;stroke:#f2f2f2;stroke-width:0.21165101"
     d="M 78.820547,37.615943 C 75.041044,35.350255 74.827577,26.530813 78.48724,23.8453 c 1.155912,-0.848225 2.416798,-1.311559 4.16861,-1.531829 1.248437,-0.156977 1.261519,-0.165699 1.187419,-0.791745 -0.100278,-0.847219 -0.57807,-1.735227 -1.077432,-2.002477 -0.223958,-0.119859 -0.930374,-0.217925 -1.569813,-0.217925 -0.917428,0 -1.463054,0.156599 -2.587223,0.742556 -0.783535,0.408406 -1.448349,0.717946 -1.477364,0.687866 -0.02902,-0.03008 -0.294823,-1.322335 -0.590682,-2.871677 l -0.537926,-2.816986 0.677092,-0.622811 c 0.3724,-0.342547 1.294168,-0.932141 2.048373,-1.310209 1.228515,-0.615831 1.560772,-0.687397 3.191362,-0.687397 1.653971,0 1.913409,0.05795 2.842669,0.634953 1.988058,1.234442 3.082911,3.599569 3.486392,7.531385 0.120986,1.178973 0.219974,5.518472 0.219974,9.643332 v 7.499744 l -1.74378,-0.06147 c -1.555304,-0.05483 -1.751092,-0.107225 -1.811426,-0.484774 -0.154205,-0.964959 -0.245049,-0.994455 -0.935696,-0.303808 -1.374197,1.374197 -3.568301,1.686435 -5.157242,0.733917 z m 4.561024,-6.59416 c 0.639178,-0.537833 0.657997,-0.602743 0.59828,-2.063598 l -0.06166,-1.508298 -0.736092,0.07392 c -1.045305,0.104976 -2.309467,0.650997 -2.550673,1.101695 -0.345951,0.646416 -0.233526,1.800577 0.233187,2.393907 0.592513,0.753258 1.623422,0.754229 2.516955,0.0024 z"
     id="path3764"
     inkscape:connector-curvature="0" />
  <path
     style="fill:#f2f2f2;stroke:#f2f2f2;stroke-width:0.21165101"
     d="m 91.220154,28.613968 v -9.100993 h -0.95243 -0.952429 v -3.386417 -3.386416 h 0.919736 0.919735 l 0.133062,-2.698549 c 0.247538,-5.0201756 1.667881,-8.3084596 4.057705,-9.39413365 1.167157,-0.530228 2.16187,-0.489815 3.423954,0.139111 1.883543,0.93861005 1.859073,0.85690105 1.312753,4.38382505 l -0.473913,3.059479 -0.73138,-0.496328 c -0.940968,-0.638559 -2.14941,-0.662631 -2.700401,-0.05379 -0.328577,0.363073 -0.414628,0.855591 -0.479225,2.7428846 l -0.07874,2.30035 1.875066,0.06149 1.87507,0.06149 v 3.28059 3.280591 l -1.85195,0.06115 -1.851946,0.06115 v 9.092753 9.092753 H 93.442485 91.22015 Z"
     id="path3766"
     inkscape:connector-curvature="0" />
  <path
     style="fill:#f2f2f2;stroke:#f2f2f2;stroke-width:0.21165101"
     d="m 104.23669,37.742262 c -1.9942,-0.910895 -3.63834,-3.602128 -4.373558,-7.158931 -0.578565,-2.798963 -0.466445,-8.586721 0.215688,-11.133954 1.49556,-5.584757 5.26493,-8.385176 8.86904,-6.589176 1.86919,0.931457 3.04977,2.615551 3.99604,5.700344 0.55937,1.823501 0.58424,2.094696 0.5823,6.34953 -0.002,3.875601 -0.0595,4.651587 -0.45081,6.060765 -0.92809,3.342081 -2.64816,5.88492 -4.5715,6.758209 -1.15266,0.523366 -3.13688,0.529508 -4.2672,0.01321 z m 3.55341,-7.014467 c 0.9442,-0.742706 1.31621,-2.284114 1.30193,-5.394418 -0.0107,-2.335717 -0.0847,-2.934623 -0.48961,-3.963638 -0.81604,-2.073801 -2.24789,-2.681035 -3.40388,-1.443548 -0.89358,0.956587 -1.17597,2.278061 -1.15547,5.407186 0.0199,3.040729 0.3077,4.199935 1.2997,5.235363 0.68144,0.711269 1.66411,0.775134 2.44733,0.159055 z"
     id="path3768"
     inkscape:connector-curvature="0" />
  <path
     style="fill:#f2f2f2;stroke:#f2f2f2;stroke-width:0.21165101"
     d="m 113.28871,37.450398 c 0.0562,-0.14551 1.20573,-2.897331 2.55456,-6.115157 l 2.45244,-5.850592 -2.53193,-6.193838 c -1.39255,-3.406611 -2.53192,-6.277057 -2.53192,-6.378768 0,-0.101711 1.16646,-0.158187 2.59213,-0.125502 l 2.59212,0.05943 1.14575,3.1302 c 0.63016,1.721611 1.21325,3.055012 1.29576,2.963114 0.0825,-0.0919 0.65996,-1.524298 1.28323,-3.183113 l 1.13322,-3.016027 h 2.49251 c 1.65077,0 2.4925,0.07755 2.4925,0.229645 0,0.126304 -1.14291,2.876354 -2.53981,6.111222 -1.3969,3.234867 -2.53981,6.015078 -2.53981,6.178247 0,0.163168 1.09529,2.997937 2.43399,6.299485 1.33869,3.30155 2.43398,6.037332 2.43398,6.079518 0,0.04219 -1.16963,0.0767 -2.59919,0.0767 h -2.59919 l -1.14264,-3.085133 -1.14265,-3.085132 -0.80618,2.079791 c -0.4434,1.143884 -0.96897,2.532194 -1.16795,3.085132 l -0.36176,1.005342 h -2.52065 c -1.92989,0 -2.49671,-0.062 -2.41851,-0.264564 z"
     id="path3770"
     inkscape:connector-curvature="0" />
</svg>
